<?xml version="1.0" encoding="utf-8"?>
<!-- Generator: Adobe Illustrator 15.1.0, SVG Export Plug-In . SVG Version: 6.00 Build 0)  -->
<!DOCTYPE svg PUBLIC "-//W3C//DTD SVG 1.1//EN" "http://www.w3.org/Graphics/SVG/1.1/DTD/svg11.dtd">
<svg version="1.1" id="Слой_1" xmlns="http://www.w3.org/2000/svg" xmlns:xlink="http://www.w3.org/1999/xlink" x="0px" y="0px"
	 width="43.498px" height="59.998px" viewBox="215.595 362.592 43.498 59.998"
	 enable-background="new 215.595 362.592 43.498 59.998" xml:space="preserve">
<g>
	<g>
		<path fill="#DF665B" d="M247.031,411.66h-20.594c-1.685,0-2.86-1.686-2.256-3.24l3.02-8.232c0.349-0.951,1.239-1.588,2.256-1.588
			h14.524c1.017,0,1.907,0.637,2.257,1.588l3.051,8.232C249.892,409.975,248.716,411.66,247.031,411.66z"/>
	</g>
	<g opacity="0.2">
		<path fill="#04080A" d="M244.235,403.303c0,1.334-2.161,2.414-4.831,2.414h-2.67c0-1.334,4.481-4.701,5.212-4.48
			C243.313,401.682,244.235,402.443,244.235,403.303z"/>
	</g>
	<g>
		<path fill="#282D2C" d="M247.031,412.041h-20.594c-0.921,0-1.78-0.445-2.32-1.207c-0.541-0.762-0.636-1.715-0.318-2.574
			l3.051-8.23c0.413-1.113,1.462-1.845,2.638-1.845h14.524c1.176,0,2.225,0.731,2.638,1.845l3.051,8.23
			c0.318,0.859,0.19,1.844-0.318,2.574C248.811,411.596,247.953,412.041,247.031,412.041z M229.488,399.012
			c-0.827,0-1.589,0.541-1.907,1.303l-3.051,8.23c-0.223,0.637-0.159,1.305,0.222,1.846c0.381,0.539,0.985,0.855,1.653,0.855H247
			c0.668,0,1.271-0.316,1.653-0.855c0.382-0.541,0.477-1.242,0.222-1.846l-3.05-8.23c-0.287-0.793-1.05-1.303-1.907-1.303H229.488z"
			/>
	</g>
	<g>
		<path fill="#2AA590" d="M249.065,385.854c0-6.801-5.53-12.332-12.331-12.332s-12.332,5.53-12.332,12.332
			c0,0.222,0,0.444,0.032,0.635c0.35,6.928,5.975,15.161,11.505,18.593c0.254,0.16,0.541,0.223,0.826,0.223l0,0
			c0.286,0,0.541-0.062,0.794-0.223c5.53-3.4,11.156-11.665,11.505-18.593C249.065,386.267,249.065,386.076,249.065,385.854z"/>
	</g>
	<g opacity="0.2">
		<path fill="#04080A" d="M236.734,373.522c-0.35,0-0.731,0.032-1.081,0.064c6.292,0.54,11.25,5.816,11.25,12.268
			c0,0.222,0,0.413-0.032,0.635c-0.318,6.802-5.784,14.907-11.218,18.403c0.095,0.062,0.19,0.125,0.286,0.189
			c0.254,0.16,0.541,0.223,0.826,0.223s0.541-0.062,0.794-0.223c5.53-3.4,11.156-11.665,11.505-18.593
			c0-0.223,0.032-0.413,0.032-0.635C249.065,379.053,243.536,373.522,236.734,373.522z"/>
	</g>
	<g>
		<path fill="#282D2C" d="M236.734,405.686c-0.35,0-0.731-0.096-1.017-0.285c-5.339-3.273-11.346-11.442-11.695-18.879
			c0-0.223-0.032-0.445-0.032-0.667c0-7.024,5.72-12.712,12.712-12.712c6.992,0,12.712,5.72,12.712,12.712
			c0,0.222,0,0.444-0.031,0.667c-0.349,7.437-6.356,15.605-11.696,18.91C237.465,405.59,237.116,405.686,236.734,405.686
			C236.766,405.686,236.734,405.686,236.734,405.686z M236.734,373.904c-6.579,0-11.918,5.339-11.918,11.917
			c0,0.223,0,0.413,0.032,0.636c0.35,6.96,6.134,15.064,11.314,18.275c0.159,0.096,0.381,0.16,0.604,0.16v0.381v-0.414
			c0.223,0,0.413-0.062,0.572-0.16c5.18-3.209,10.964-11.313,11.314-18.273c0-0.222,0.032-0.413,0.032-0.635
			C248.652,379.275,243.313,373.904,236.734,373.904z"/>
	</g>
	<g>
		<circle fill="#F6F3E0" cx="236.734" cy="385.854" r="9.725"/>
	</g>
	<g>
		<path fill="#EBB742" d="M241.216,390.081h-8.963c-0.539,0-0.953-0.413-0.953-0.954v-1.24h10.9v1.24
			C242.169,389.636,241.756,390.081,241.216,390.081z"/>
	</g>
	<g>
		<path fill="#282D2C" d="M241.216,390.462h-8.963c-0.73,0-1.334-0.604-1.334-1.335v-1.24c0-0.222,0.191-0.38,0.382-0.38h10.9
			c0.223,0,0.382,0.19,0.382,0.38v1.24C242.582,389.858,241.979,390.462,241.216,390.462z M231.681,388.301v0.826
			c0,0.318,0.254,0.572,0.571,0.572h8.995c0.317,0,0.571-0.254,0.571-0.572v-0.826H231.681z"/>
	</g>
	<g>
		<path fill="#282D2C" d="M243.09,386.839h-12.712c-0.223,0-0.382-0.191-0.382-0.382c0-0.191,0.191-0.381,0.382-0.381h12.712
			c0.223,0,0.381,0.19,0.381,0.381C243.472,386.648,243.313,386.839,243.09,386.839z"/>
	</g>
	<g>
		<path fill="#EBB742" d="M242.169,384.995H231.3l0,0c0-1.43,0.889-2.764,2.256-3.241c2.129-0.731,4.259-0.731,6.388,0
			C241.279,382.231,242.169,383.534,242.169,384.995L242.169,384.995z"/>
	</g>
	<g>
		<path fill="#282D2C" d="M242.2,385.377L242.2,385.377h-10.9c-0.223,0-0.382-0.191-0.382-0.382c0-1.652,1.018-3.083,2.511-3.623
			c2.193-0.763,4.449-0.763,6.642,0c1.493,0.508,2.479,1.938,2.511,3.528c0,0.031,0,0.063,0,0.063
			C242.582,385.218,242.423,385.377,242.2,385.377z M231.713,384.582h10.042c-0.159-1.144-0.89-2.097-1.97-2.479
			c-2.035-0.699-4.1-0.699-6.134,0C232.603,382.485,231.84,383.47,231.713,384.582z"/>
	</g>
	<g>
		<path fill="#282D2C" d="M233.747,383.916c-0.253,0-0.476-0.223-0.476-0.478c0-0.254,0.223-0.477,0.476-0.477
			c0.255,0,0.477,0.223,0.477,0.477C234.224,383.692,234.001,383.916,233.747,383.916z"/>
	</g>
	<g>
		<path fill="#282D2C" d="M238.101,383.184c-0.254,0-0.477-0.223-0.477-0.476c0-0.255,0.223-0.477,0.477-0.477
			c0.254,0,0.476,0.222,0.476,0.477C238.577,382.961,238.355,383.184,238.101,383.184z"/>
	</g>
	<g>
		<path fill="#282D2C" d="M239.913,384.265c-0.254,0-0.477-0.222-0.477-0.477c0-0.254,0.223-0.477,0.477-0.477
			c0.254,0,0.477,0.223,0.477,0.477C240.389,384.042,240.167,384.265,239.913,384.265z"/>
	</g>
	<g>
		<path fill="#282D2C" d="M236.734,395.993c-5.594,0-10.138-4.546-10.138-10.139c0-5.594,4.544-10.139,10.138-10.139
			c5.593,0,10.138,4.545,10.138,10.139C246.872,391.447,242.328,395.993,236.734,395.993z M236.734,376.51
			c-5.148,0-9.344,4.195-9.344,9.344c0,5.148,4.195,9.344,9.344,9.344c5.148,0,9.344-4.196,9.344-9.344
			C246.078,380.706,241.882,376.51,236.734,376.51z"/>
	</g>
</g>
</svg>
